<svg xmlns="http://www.w3.org/2000/svg" xmlns:xlink="http://www.w3.org/1999/xlink" version="1.1" width="612pt" height="792pt" viewBox="0 0 612 792">
<path transform="matrix(1,0,0,-1,0,792)" d="M0 0H612V792H0Z" fill="#ffffff"/>
<path transform="matrix(1,0,0,-1,0,792)" stroke-width=".3" stroke-linecap="butt" stroke-miterlimit="10" stroke-linejoin="miter" fill="none" stroke="#b3b3ff" d="M35.85 36H576.15"/>
<path transform="matrix(1,0,0,-1,0,792)" stroke-width=".3" stroke-linecap="butt" stroke-miterlimit="10" stroke-linejoin="miter" fill="none" stroke="#b3b3ff" d="M35.85 54H576.15"/>
<path transform="matrix(1,0,0,-1,0,792)" stroke-width=".3" stroke-linecap="butt" stroke-miterlimit="10" stroke-linejoin="miter" fill="none" stroke="#b3b3ff" d="M35.85 72H576.15"/>
<path transform="matrix(1,0,0,-1,0,792)" stroke-width=".3" stroke-linecap="butt" stroke-miterlimit="10" stroke-linejoin="miter" fill="none" stroke="#b3b3ff" d="M35.85 90H576.15"/>
<path transform="matrix(1,0,0,-1,0,792)" stroke-width=".3" stroke-linecap="butt" stroke-miterlimit="10" stroke-linejoin="miter" fill="none" stroke="#b3b3ff" d="M35.85 108H576.15"/>
<path transform="matrix(1,0,0,-1,0,792)" stroke-width=".3" stroke-linecap="butt" stroke-miterlimit="10" stroke-linejoin="miter" fill="none" stroke="#b3b3ff" d="M35.85 126H576.15"/>
<path transform="matrix(1,0,0,-1,0,792)" stroke-width=".3" stroke-linecap="butt" stroke-miterlimit="10" stroke-linejoin="miter" fill="none" stroke="#b3b3ff" d="M35.85 144H576.15"/>
<path transform="matrix(1,0,0,-1,0,792)" stroke-width=".3" stroke-linecap="butt" stroke-miterlimit="10" stroke-linejoin="miter" fill="none" stroke="#b3b3ff" d="M35.85 162H576.15"/>
<path transform="matrix(1,0,0,-1,0,792)" stroke-width=".3" stroke-linecap="butt" stroke-miterlimit="10" stroke-linejoin="miter" fill="none" stroke="#b3b3ff" d="M35.85 180H576.15"/>
<path transform="matrix(1,0,0,-1,0,792)" stroke-width=".3" stroke-linecap="butt" stroke-miterlimit="10" stroke-linejoin="miter" fill="none" stroke="#b3b3ff" d="M35.85 198H576.15"/>
<path transform="matrix(1,0,0,-1,0,792)" stroke-width=".3" stroke-linecap="butt" stroke-miterlimit="10" stroke-linejoin="miter" fill="none" stroke="#b3b3ff" d="M35.85 216H576.15"/>
<path transform="matrix(1,0,0,-1,0,792)" stroke-width=".3" stroke-linecap="butt" stroke-miterlimit="10" stroke-linejoin="miter" fill="none" stroke="#b3b3ff" d="M35.85 234H576.15"/>
<path transform="matrix(1,0,0,-1,0,792)" stroke-width=".3" stroke-linecap="butt" stroke-miterlimit="10" stroke-linejoin="miter" fill="none" stroke="#b3b3ff" d="M35.85 252H576.15"/>
<path transform="matrix(1,0,0,-1,0,792)" stroke-width=".3" stroke-linecap="butt" stroke-miterlimit="10" stroke-linejoin="miter" fill="none" stroke="#b3b3ff" d="M35.85 270H576.15"/>
<path transform="matrix(1,0,0,-1,0,792)" stroke-width=".3" stroke-linecap="butt" stroke-miterlimit="10" stroke-linejoin="miter" fill="none" stroke="#b3b3ff" d="M35.85 288H576.15"/>
<path transform="matrix(1,0,0,-1,0,792)" stroke-width=".3" stroke-linecap="butt" stroke-miterlimit="10" stroke-linejoin="miter" fill="none" stroke="#b3b3ff" d="M35.85 306H576.15"/>
<path transform="matrix(1,0,0,-1,0,792)" stroke-width=".3" stroke-linecap="butt" stroke-miterlimit="10" stroke-linejoin="miter" fill="none" stroke="#b3b3ff" d="M35.85 324H576.15"/>
<path transform="matrix(1,0,0,-1,0,792)" stroke-width=".3" stroke-linecap="butt" stroke-miterlimit="10" stroke-linejoin="miter" fill="none" stroke="#b3b3ff" d="M35.85 342H576.15"/>
<path transform="matrix(1,0,0,-1,0,792)" stroke-width=".3" stroke-linecap="butt" stroke-miterlimit="10" stroke-linejoin="miter" fill="none" stroke="#b3b3ff" d="M35.85 360H576.15"/>
<path transform="matrix(1,0,0,-1,0,792)" stroke-width=".3" stroke-linecap="butt" stroke-miterlimit="10" stroke-linejoin="miter" fill="none" stroke="#b3b3ff" d="M35.85 378H576.15"/>
<path transform="matrix(1,0,0,-1,0,792)" stroke-width=".3" stroke-linecap="butt" stroke-miterlimit="10" stroke-linejoin="miter" fill="none" stroke="#b3b3ff" d="M35.85 396H576.15"/>
<path transform="matrix(1,0,0,-1,0,792)" stroke-width=".3" stroke-linecap="butt" stroke-miterlimit="10" stroke-linejoin="miter" fill="none" stroke="#b3b3ff" d="M35.85 414H576.15"/>
<path transform="matrix(1,0,0,-1,0,792)" stroke-width=".3" stroke-linecap="butt" stroke-miterlimit="10" stroke-linejoin="miter" fill="none" stroke="#b3b3ff" d="M35.85 432H576.15"/>
<path transform="matrix(1,0,0,-1,0,792)" stroke-width=".3" stroke-linecap="butt" stroke-miterlimit="10" stroke-linejoin="miter" fill="none" stroke="#b3b3ff" d="M35.85 450H576.15"/>
<path transform="matrix(1,0,0,-1,0,792)" stroke-width=".3" stroke-linecap="butt" stroke-miterlimit="10" stroke-linejoin="miter" fill="none" stroke="#b3b3ff" d="M35.85 468H576.15"/>
<path transform="matrix(1,0,0,-1,0,792)" stroke-width=".3" stroke-linecap="butt" stroke-miterlimit="10" stroke-linejoin="miter" fill="none" stroke="#b3b3ff" d="M35.85 486H576.15"/>
<path transform="matrix(1,0,0,-1,0,792)" stroke-width=".3" stroke-linecap="butt" stroke-miterlimit="10" stroke-linejoin="miter" fill="none" stroke="#b3b3ff" d="M35.85 504H576.15"/>
<path transform="matrix(1,0,0,-1,0,792)" stroke-width=".3" stroke-linecap="butt" stroke-miterlimit="10" stroke-linejoin="miter" fill="none" stroke="#b3b3ff" d="M35.85 522H576.15"/>
<path transform="matrix(1,0,0,-1,0,792)" stroke-width=".3" stroke-linecap="butt" stroke-miterlimit="10" stroke-linejoin="miter" fill="none" stroke="#b3b3ff" d="M35.85 540H576.15"/>
<path transform="matrix(1,0,0,-1,0,792)" stroke-width=".3" stroke-linecap="butt" stroke-miterlimit="10" stroke-linejoin="miter" fill="none" stroke="#b3b3ff" d="M35.85 558H576.15"/>
<path transform="matrix(1,0,0,-1,0,792)" stroke-width=".3" stroke-linecap="butt" stroke-miterlimit="10" stroke-linejoin="miter" fill="none" stroke="#b3b3ff" d="M35.85 576H576.15"/>
<path transform="matrix(1,0,0,-1,0,792)" stroke-width=".3" stroke-linecap="butt" stroke-miterlimit="10" stroke-linejoin="miter" fill="none" stroke="#b3b3ff" d="M35.85 594H576.15"/>
<path transform="matrix(1,0,0,-1,0,792)" stroke-width=".3" stroke-linecap="butt" stroke-miterlimit="10" stroke-linejoin="miter" fill="none" stroke="#b3b3ff" d="M35.85 612H576.15"/>
<path transform="matrix(1,0,0,-1,0,792)" stroke-width=".3" stroke-linecap="butt" stroke-miterlimit="10" stroke-linejoin="miter" fill="none" stroke="#b3b3ff" d="M35.85 630H576.15"/>
<path transform="matrix(1,0,0,-1,0,792)" stroke-width=".3" stroke-linecap="butt" stroke-miterlimit="10" stroke-linejoin="miter" fill="none" stroke="#b3b3ff" d="M35.85 648H576.15"/>
<path transform="matrix(1,0,0,-1,0,792)" stroke-width=".3" stroke-linecap="butt" stroke-miterlimit="10" stroke-linejoin="miter" fill="none" stroke="#b3b3ff" d="M35.85 666H576.15"/>
<path transform="matrix(1,0,0,-1,0,792)" stroke-width=".3" stroke-linecap="butt" stroke-miterlimit="10" stroke-linejoin="miter" fill="none" stroke="#b3b3ff" d="M35.85 684H576.15"/>
<path transform="matrix(1,0,0,-1,0,792)" stroke-width=".3" stroke-linecap="butt" stroke-miterlimit="10" stroke-linejoin="miter" fill="none" stroke="#b3b3ff" d="M35.85 702H576.15"/>
<path transform="matrix(1,0,0,-1,0,792)" stroke-width=".3" stroke-linecap="butt" stroke-miterlimit="10" stroke-linejoin="miter" fill="none" stroke="#b3b3ff" d="M35.85 720H576.15"/>
<path transform="matrix(1,0,0,-1,0,792)" stroke-width=".3" stroke-linecap="butt" stroke-miterlimit="10" stroke-linejoin="miter" fill="none" stroke="#b3b3ff" d="M35.85 738H576.15"/>
<path transform="matrix(1,0,0,-1,0,792)" stroke-width=".3" stroke-linecap="butt" stroke-miterlimit="10" stroke-linejoin="miter" fill="none" stroke="#b3b3ff" d="M35.85 756H576.15"/>
<path transform="matrix(1,0,0,-1,0,792)" stroke-width=".3" stroke-linecap="butt" stroke-miterlimit="10" stroke-linejoin="miter" fill="none" stroke="#b3b3ff" d="M36 35.85V756.15"/>
<path transform="matrix(1,0,0,-1,0,792)" stroke-width=".3" stroke-linecap="butt" stroke-miterlimit="10" stroke-linejoin="miter" fill="none" stroke="#b3b3ff" d="M54 35.85V756.15"/>
<path transform="matrix(1,0,0,-1,0,792)" stroke-width=".3" stroke-linecap="butt" stroke-miterlimit="10" stroke-linejoin="miter" fill="none" stroke="#b3b3ff" d="M72 35.85V756.15"/>
<path transform="matrix(1,0,0,-1,0,792)" stroke-width=".3" stroke-linecap="butt" stroke-miterlimit="10" stroke-linejoin="miter" fill="none" stroke="#b3b3ff" d="M90 35.85V756.15"/>
<path transform="matrix(1,0,0,-1,0,792)" stroke-width=".3" stroke-linecap="butt" stroke-miterlimit="10" stroke-linejoin="miter" fill="none" stroke="#b3b3ff" d="M108 35.85V756.15"/>
<path transform="matrix(1,0,0,-1,0,792)" stroke-width=".3" stroke-linecap="butt" stroke-miterlimit="10" stroke-linejoin="miter" fill="none" stroke="#b3b3ff" d="M126 35.85V756.15"/>
<path transform="matrix(1,0,0,-1,0,792)" stroke-width=".3" stroke-linecap="butt" stroke-miterlimit="10" stroke-linejoin="miter" fill="none" stroke="#b3b3ff" d="M144 35.85V756.15"/>
<path transform="matrix(1,0,0,-1,0,792)" stroke-width=".3" stroke-linecap="butt" stroke-miterlimit="10" stroke-linejoin="miter" fill="none" stroke="#b3b3ff" d="M162 35.85V756.15"/>
<path transform="matrix(1,0,0,-1,0,792)" stroke-width=".3" stroke-linecap="butt" stroke-miterlimit="10" stroke-linejoin="miter" fill="none" stroke="#b3b3ff" d="M180 35.85V756.15"/>
<path transform="matrix(1,0,0,-1,0,792)" stroke-width=".3" stroke-linecap="butt" stroke-miterlimit="10" stroke-linejoin="miter" fill="none" stroke="#b3b3ff" d="M198 35.85V756.15"/>
<path transform="matrix(1,0,0,-1,0,792)" stroke-width=".3" stroke-linecap="butt" stroke-miterlimit="10" stroke-linejoin="miter" fill="none" stroke="#b3b3ff" d="M216 35.85V756.15"/>
<path transform="matrix(1,0,0,-1,0,792)" stroke-width=".3" stroke-linecap="butt" stroke-miterlimit="10" stroke-linejoin="miter" fill="none" stroke="#b3b3ff" d="M234 35.85V756.15"/>
<path transform="matrix(1,0,0,-1,0,792)" stroke-width=".3" stroke-linecap="butt" stroke-miterlimit="10" stroke-linejoin="miter" fill="none" stroke="#b3b3ff" d="M252 35.85V756.15"/>
<path transform="matrix(1,0,0,-1,0,792)" stroke-width=".3" stroke-linecap="butt" stroke-miterlimit="10" stroke-linejoin="miter" fill="none" stroke="#b3b3ff" d="M270 35.85V756.15"/>
<path transform="matrix(1,0,0,-1,0,792)" stroke-width=".3" stroke-linecap="butt" stroke-miterlimit="10" stroke-linejoin="miter" fill="none" stroke="#b3b3ff" d="M288 35.85V756.15"/>
<path transform="matrix(1,0,0,-1,0,792)" stroke-width=".3" stroke-linecap="butt" stroke-miterlimit="10" stroke-linejoin="miter" fill="none" stroke="#b3b3ff" d="M306 35.85V756.15"/>
<path transform="matrix(1,0,0,-1,0,792)" stroke-width=".3" stroke-linecap="butt" stroke-miterlimit="10" stroke-linejoin="miter" fill="none" stroke="#b3b3ff" d="M324 35.85V756.15"/>
<path transform="matrix(1,0,0,-1,0,792)" stroke-width=".3" stroke-linecap="butt" stroke-miterlimit="10" stroke-linejoin="miter" fill="none" stroke="#b3b3ff" d="M342 35.85V756.15"/>
<path transform="matrix(1,0,0,-1,0,792)" stroke-width=".3" stroke-linecap="butt" stroke-miterlimit="10" stroke-linejoin="miter" fill="none" stroke="#b3b3ff" d="M360 35.85V756.15"/>
<path transform="matrix(1,0,0,-1,0,792)" stroke-width=".3" stroke-linecap="butt" stroke-miterlimit="10" stroke-linejoin="miter" fill="none" stroke="#b3b3ff" d="M378 35.85V756.15"/>
<path transform="matrix(1,0,0,-1,0,792)" stroke-width=".3" stroke-linecap="butt" stroke-miterlimit="10" stroke-linejoin="miter" fill="none" stroke="#b3b3ff" d="M396 35.85V756.15"/>
<path transform="matrix(1,0,0,-1,0,792)" stroke-width=".3" stroke-linecap="butt" stroke-miterlimit="10" stroke-linejoin="miter" fill="none" stroke="#b3b3ff" d="M414 35.85V756.15"/>
<path transform="matrix(1,0,0,-1,0,792)" stroke-width=".3" stroke-linecap="butt" stroke-miterlimit="10" stroke-linejoin="miter" fill="none" stroke="#b3b3ff" d="M432 35.85V756.15"/>
<path transform="matrix(1,0,0,-1,0,792)" stroke-width=".3" stroke-linecap="butt" stroke-miterlimit="10" stroke-linejoin="miter" fill="none" stroke="#b3b3ff" d="M450 35.85V756.15"/>
<path transform="matrix(1,0,0,-1,0,792)" stroke-width=".3" stroke-linecap="butt" stroke-miterlimit="10" stroke-linejoin="miter" fill="none" stroke="#b3b3ff" d="M468 35.85V756.15"/>
<path transform="matrix(1,0,0,-1,0,792)" stroke-width=".3" stroke-linecap="butt" stroke-miterlimit="10" stroke-linejoin="miter" fill="none" stroke="#b3b3ff" d="M486 35.85V756.15"/>
<path transform="matrix(1,0,0,-1,0,792)" stroke-width=".3" stroke-linecap="butt" stroke-miterlimit="10" stroke-linejoin="miter" fill="none" stroke="#b3b3ff" d="M504 35.85V756.15"/>
<path transform="matrix(1,0,0,-1,0,792)" stroke-width=".3" stroke-linecap="butt" stroke-miterlimit="10" stroke-linejoin="miter" fill="none" stroke="#b3b3ff" d="M522 35.85V756.15"/>
<path transform="matrix(1,0,0,-1,0,792)" stroke-width=".3" stroke-linecap="butt" stroke-miterlimit="10" stroke-linejoin="miter" fill="none" stroke="#b3b3ff" d="M540 35.85V756.15"/>
<path transform="matrix(1,0,0,-1,0,792)" stroke-width=".3" stroke-linecap="butt" stroke-miterlimit="10" stroke-linejoin="miter" fill="none" stroke="#b3b3ff" d="M558 35.85V756.15"/>
<path transform="matrix(1,0,0,-1,0,792)" stroke-width=".3" stroke-linecap="butt" stroke-miterlimit="10" stroke-linejoin="miter" fill="none" stroke="#b3b3ff" d="M576 35.85V756.15"/>
</svg>
